<svg id="Group_1704" data-name="Group 1704" xmlns="http://www.w3.org/2000/svg" xmlns:xlink="http://www.w3.org/1999/xlink" width="161.152" height="193.851" viewBox="0 0 161.152 193.851">
  <defs>
    <clipPath id="clip-path">
      <rect id="Rectangle_2270" data-name="Rectangle 2270" width="161.152" height="193.851" fill="none"/>
    </clipPath>
  </defs>
  <g id="Group_1703" data-name="Group 1703" clip-path="url(#clip-path)">
    <path id="Path_598" data-name="Path 598" d="M161.048,193.851c-19.015-5.041-33.975-15.363-43.124-31.873-6.375-11.5-13.608-21.124-25.175-27.627-5.581-3.138-10.229-7.889-15.566-11.519-9.571-6.511-19.519-6.69-28.523.464-7.461,5.929-14.005,13.014-20.927,19.616-1.273,1.214-2.415,2.566-4.2,4.476-.8-1.848-1.542-2.909-1.7-4.049-2.057-15.18-6.451-29.129-19.709-38.592-.587-.42-.847-1.3-2.131-3.367,5.78.731,10.4,1.129,14.941,1.925,12.58,2.2,25.029,3.043,37.032-2.608,1.793-.844,3.55-1.784,5.25-2.8,3.542-2.119,4.79-4.489,2.946-8.97a48.072,48.072,0,0,1-3.322-15.391,31.9,31.9,0,0,0-5.472-16.688C43.887,45.727,37.991,33.985,38.41,20c.226-7.547,3.866-13.638,8.16-19.337.712-.945,3.953-.8,5.581-.11C65,6,75.155,14.914,83.306,26.066c4.487,6.14,8.5,12.639,12.507,19.114,4.222,6.828,5.479,14.469,5.489,22.385,0,3.149-.046,6.316.269,9.44.734,7.273,4.159,10.387,11.456,11.078a116.657,116.657,0,0,1,13.767,1.809c8.444,1.832,13.833,7.252,17.332,16.664-8.865-4.95-13.424-.657-17.257,6.382,30.6,18.78,35.084,48.649,34.179,80.913" fill="#af93f9"/>
  </g>
</svg>
